<mxfile host="Electron" modified="2024-02-07T19:26:11.891Z" agent="Mozilla/5.0 (Macintosh; Intel Mac OS X 10_15_7) AppleWebKit/537.36 (KHTML, like Gecko) draw.io/23.0.2 Chrome/120.0.6099.109 Electron/28.1.0 Safari/537.36" etag="qDsoHfLA1My3v5Q0v5YY" version="23.0.2" type="device">
  <diagram id="E2ULkJl6go0xUk4_vNiQ" name="Page-1">
    <mxGraphModel dx="2908" dy="1128" grid="1" gridSize="10" guides="1" tooltips="1" connect="1" arrows="1" fold="1" page="1" pageScale="1" pageWidth="1100" pageHeight="850" math="0" shadow="0">
      <root>
        <mxCell id="0" />
        <mxCell id="6UVFRJuRCrQyfI-HaULN-3" value="model creation" parent="0" />
        <mxCell id="FbfdTK8tjVJBXB0avibO-2" value="" style="rounded=0;whiteSpace=wrap;html=1;fillColor=#f9f7ed;strokeColor=none;" parent="6UVFRJuRCrQyfI-HaULN-3" vertex="1">
          <mxGeometry x="-1050" y="80" width="420" height="530" as="geometry" />
        </mxCell>
        <mxCell id="XKbH0hADGiryWMfeD4Mq-39" style="edgeStyle=orthogonalEdgeStyle;rounded=0;orthogonalLoop=1;jettySize=auto;html=1;entryX=0.75;entryY=0;entryDx=0;entryDy=0;fillColor=#6a00ff;strokeColor=#3700CC;" parent="6UVFRJuRCrQyfI-HaULN-3" source="LRI6FaqGRrZTjfz2rVRe-10" target="XKbH0hADGiryWMfeD4Mq-48" edge="1">
          <mxGeometry relative="1" as="geometry" />
        </mxCell>
        <mxCell id="XKbH0hADGiryWMfeD4Mq-40" style="edgeStyle=orthogonalEdgeStyle;rounded=0;orthogonalLoop=1;jettySize=auto;html=1;entryX=0.25;entryY=0;entryDx=0;entryDy=0;fillColor=#6a00ff;strokeColor=#3700CC;" parent="6UVFRJuRCrQyfI-HaULN-3" source="LRI6FaqGRrZTjfz2rVRe-11" target="XKbH0hADGiryWMfeD4Mq-48" edge="1">
          <mxGeometry relative="1" as="geometry" />
        </mxCell>
        <mxCell id="XKbH0hADGiryWMfeD4Mq-9" value="element model" style="shape=note;whiteSpace=wrap;html=1;backgroundOutline=1;darkOpacity=0.05;" parent="6UVFRJuRCrQyfI-HaULN-3" vertex="1">
          <mxGeometry x="-730" y="330" width="80" height="100" as="geometry" />
        </mxCell>
        <mxCell id="XKbH0hADGiryWMfeD4Mq-52" style="edgeStyle=orthogonalEdgeStyle;rounded=0;orthogonalLoop=1;jettySize=auto;html=1;entryX=0;entryY=0.5;entryDx=0;entryDy=0;entryPerimeter=0;" parent="6UVFRJuRCrQyfI-HaULN-3" source="XKbH0hADGiryWMfeD4Mq-48" target="XKbH0hADGiryWMfeD4Mq-9" edge="1">
          <mxGeometry relative="1" as="geometry" />
        </mxCell>
        <mxCell id="XKbH0hADGiryWMfeD4Mq-48" value="element model creation" style="shape=process;whiteSpace=wrap;html=1;backgroundOutline=1;" parent="6UVFRJuRCrQyfI-HaULN-3" vertex="1">
          <mxGeometry x="-900" y="350" width="120" height="60" as="geometry" />
        </mxCell>
        <mxCell id="FbfdTK8tjVJBXB0avibO-7" value="model creation" style="text;html=1;strokeColor=none;fillColor=none;align=center;verticalAlign=middle;whiteSpace=wrap;rounded=0;" parent="6UVFRJuRCrQyfI-HaULN-3" vertex="1">
          <mxGeometry x="-1050" y="590" width="420" height="20" as="geometry" />
        </mxCell>
        <mxCell id="FbfdTK8tjVJBXB0avibO-10" style="edgeStyle=orthogonalEdgeStyle;rounded=0;orthogonalLoop=1;jettySize=auto;html=1;fillColor=#fa6800;strokeColor=#C73500;entryX=0;entryY=0.5;entryDx=0;entryDy=0;" parent="6UVFRJuRCrQyfI-HaULN-3" source="FbfdTK8tjVJBXB0avibO-11" target="XKbH0hADGiryWMfeD4Mq-48" edge="1">
          <mxGeometry relative="1" as="geometry">
            <mxPoint x="-900" y="380" as="targetPoint" />
          </mxGeometry>
        </mxCell>
        <mxCell id="FbfdTK8tjVJBXB0avibO-11" value="system&lt;br&gt;documentation" style="shape=note;whiteSpace=wrap;html=1;backgroundOutline=1;darkOpacity=0.05;" parent="6UVFRJuRCrQyfI-HaULN-3" vertex="1">
          <mxGeometry x="-1030" y="330" width="80" height="100" as="geometry" />
        </mxCell>
        <mxCell id="LRI6FaqGRrZTjfz2rVRe-10" value="&lt;span style=&quot;&quot;&gt;ASA&lt;br&gt;SME&lt;/span&gt;" style="shape=umlActor;verticalLabelPosition=bottom;labelBackgroundColor=#F9F7ED;verticalAlign=top;html=1;outlineConnect=0;fillColor=#F9F7ED;" parent="6UVFRJuRCrQyfI-HaULN-3" vertex="1">
          <mxGeometry x="-800" y="110" width="30" height="60" as="geometry" />
        </mxCell>
        <mxCell id="LRI6FaqGRrZTjfz2rVRe-11" value="&lt;span style=&quot;&quot;&gt;development&lt;br&gt;&amp;nbsp; &amp;nbsp; &amp;nbsp; SME&amp;nbsp; &amp;nbsp; &amp;nbsp; &amp;nbsp;&lt;/span&gt;" style="shape=umlActor;verticalLabelPosition=bottom;labelBackgroundColor=#F9F7ED;verticalAlign=top;html=1;outlineConnect=0;fillColor=#F9F7ED;" parent="6UVFRJuRCrQyfI-HaULN-3" vertex="1">
          <mxGeometry x="-910" y="110" width="30" height="60" as="geometry" />
        </mxCell>
        <mxCell id="6UVFRJuRCrQyfI-HaULN-4" value="analysis" parent="0" />
        <mxCell id="FbfdTK8tjVJBXB0avibO-6" value="" style="rounded=0;whiteSpace=wrap;html=1;strokeColor=none;fillColor=#D5E8D4;" parent="6UVFRJuRCrQyfI-HaULN-4" vertex="1">
          <mxGeometry x="-630" y="80" width="300" height="530" as="geometry" />
        </mxCell>
        <mxCell id="XKbH0hADGiryWMfeD4Mq-23" style="edgeStyle=orthogonalEdgeStyle;rounded=0;orthogonalLoop=1;jettySize=auto;html=1;entryX=0;entryY=0.5;entryDx=0;entryDy=0;entryPerimeter=0;" parent="6UVFRJuRCrQyfI-HaULN-4" source="XKbH0hADGiryWMfeD4Mq-3" target="XKbH0hADGiryWMfeD4Mq-10" edge="1">
          <mxGeometry relative="1" as="geometry" />
        </mxCell>
        <mxCell id="XKbH0hADGiryWMfeD4Mq-3" value="surface analysis" style="shape=process;whiteSpace=wrap;html=1;backgroundOutline=1;" parent="6UVFRJuRCrQyfI-HaULN-4" vertex="1">
          <mxGeometry x="-600" y="350" width="120" height="60" as="geometry" />
        </mxCell>
        <mxCell id="XKbH0hADGiryWMfeD4Mq-51" style="edgeStyle=orthogonalEdgeStyle;rounded=0;orthogonalLoop=1;jettySize=auto;html=1;entryX=0.5;entryY=0;entryDx=0;entryDy=0;fillColor=#6a00ff;strokeColor=#3700CC;" parent="6UVFRJuRCrQyfI-HaULN-4" source="LRI6FaqGRrZTjfz2rVRe-9" target="XKbH0hADGiryWMfeD4Mq-3" edge="1">
          <mxGeometry relative="1" as="geometry" />
        </mxCell>
        <mxCell id="XKbH0hADGiryWMfeD4Mq-22" style="edgeStyle=orthogonalEdgeStyle;rounded=0;orthogonalLoop=1;jettySize=auto;html=1;entryX=0;entryY=0.5;entryDx=0;entryDy=0;fillColor=#fa6800;strokeColor=#C73500;" parent="6UVFRJuRCrQyfI-HaULN-4" source="XKbH0hADGiryWMfeD4Mq-9" target="XKbH0hADGiryWMfeD4Mq-3" edge="1">
          <mxGeometry relative="1" as="geometry" />
        </mxCell>
        <mxCell id="XKbH0hADGiryWMfeD4Mq-10" value="threat candidates" style="shape=note;whiteSpace=wrap;html=1;backgroundOutline=1;darkOpacity=0.05;" parent="6UVFRJuRCrQyfI-HaULN-4" vertex="1">
          <mxGeometry x="-430" y="330" width="80" height="100" as="geometry" />
        </mxCell>
        <mxCell id="FbfdTK8tjVJBXB0avibO-8" value="analysis" style="text;html=1;strokeColor=none;fillColor=none;align=center;verticalAlign=middle;whiteSpace=wrap;rounded=0;" parent="6UVFRJuRCrQyfI-HaULN-4" vertex="1">
          <mxGeometry x="-630" y="590" width="300" height="20" as="geometry" />
        </mxCell>
        <mxCell id="LRI6FaqGRrZTjfz2rVRe-9" value="&lt;span style=&quot;&quot;&gt;ASA&lt;br&gt;SME&lt;/span&gt;" style="shape=umlActor;verticalLabelPosition=bottom;labelBackgroundColor=#D5E8D4;verticalAlign=top;html=1;outlineConnect=0;fillColor=#D5E8D4;" parent="6UVFRJuRCrQyfI-HaULN-4" vertex="1">
          <mxGeometry x="-555" y="110" width="30" height="60" as="geometry" />
        </mxCell>
        <mxCell id="6UVFRJuRCrQyfI-HaULN-5" value="element model" style="shape=note;whiteSpace=wrap;html=1;backgroundOutline=1;darkOpacity=0.05;" vertex="1" parent="6UVFRJuRCrQyfI-HaULN-4">
          <mxGeometry x="-730" y="330" width="80" height="100" as="geometry" />
        </mxCell>
        <mxCell id="6UVFRJuRCrQyfI-HaULN-6" style="edgeStyle=orthogonalEdgeStyle;rounded=0;orthogonalLoop=1;jettySize=auto;html=1;entryX=0;entryY=0.5;entryDx=0;entryDy=0;fillColor=#fa6800;strokeColor=#C73500;" edge="1" parent="6UVFRJuRCrQyfI-HaULN-4" source="6UVFRJuRCrQyfI-HaULN-5">
          <mxGeometry relative="1" as="geometry">
            <mxPoint x="-600" y="380" as="targetPoint" />
          </mxGeometry>
        </mxCell>
        <mxCell id="1" value="workflow" parent="0" />
        <mxCell id="FbfdTK8tjVJBXB0avibO-4" value="" style="rounded=0;whiteSpace=wrap;html=1;strokeColor=none;fillColor=#D4E1F5;" parent="1" vertex="1">
          <mxGeometry x="-330" y="80" width="320" height="530" as="geometry" />
        </mxCell>
        <mxCell id="XKbH0hADGiryWMfeD4Mq-1" value="attack surface analysis report" style="shape=document;whiteSpace=wrap;html=1;boundedLbl=1;" parent="1" vertex="1">
          <mxGeometry x="-270" y="500" width="120" height="80" as="geometry" />
        </mxCell>
        <mxCell id="XKbH0hADGiryWMfeD4Mq-43" style="edgeStyle=orthogonalEdgeStyle;rounded=0;orthogonalLoop=1;jettySize=auto;html=1;entryX=0.25;entryY=0;entryDx=0;entryDy=0;fillColor=#6a00ff;strokeColor=#3700CC;" parent="1" source="LRI6FaqGRrZTjfz2rVRe-2" target="XKbH0hADGiryWMfeD4Mq-11" edge="1">
          <mxGeometry relative="1" as="geometry">
            <mxPoint x="-265" y="-80" as="sourcePoint" />
            <Array as="points">
              <mxPoint x="-265" y="260" />
              <mxPoint x="-240" y="260" />
            </Array>
          </mxGeometry>
        </mxCell>
        <mxCell id="XKbH0hADGiryWMfeD4Mq-42" style="edgeStyle=orthogonalEdgeStyle;rounded=0;orthogonalLoop=1;jettySize=auto;html=1;entryX=0.75;entryY=0;entryDx=0;entryDy=0;fillColor=#6a00ff;strokeColor=#3700CC;" parent="1" source="LRI6FaqGRrZTjfz2rVRe-3" target="XKbH0hADGiryWMfeD4Mq-11" edge="1">
          <mxGeometry relative="1" as="geometry">
            <mxPoint x="-140" y="110" as="sourcePoint" />
          </mxGeometry>
        </mxCell>
        <mxCell id="XKbH0hADGiryWMfeD4Mq-24" style="edgeStyle=orthogonalEdgeStyle;rounded=0;orthogonalLoop=1;jettySize=auto;html=1;entryX=0;entryY=0.5;entryDx=0;entryDy=0;fillColor=#fa6800;strokeColor=#C73500;" parent="1" source="XKbH0hADGiryWMfeD4Mq-10" target="XKbH0hADGiryWMfeD4Mq-11" edge="1">
          <mxGeometry relative="1" as="geometry" />
        </mxCell>
        <mxCell id="XKbH0hADGiryWMfeD4Mq-27" style="edgeStyle=orthogonalEdgeStyle;rounded=0;orthogonalLoop=1;jettySize=auto;html=1;entryX=0;entryY=0.5;entryDx=0;entryDy=0;entryPerimeter=0;" parent="1" source="XKbH0hADGiryWMfeD4Mq-11" target="XKbH0hADGiryWMfeD4Mq-12" edge="1">
          <mxGeometry relative="1" as="geometry" />
        </mxCell>
        <mxCell id="XKbH0hADGiryWMfeD4Mq-54" style="edgeStyle=orthogonalEdgeStyle;rounded=0;orthogonalLoop=1;jettySize=auto;html=1;entryX=0.5;entryY=0;entryDx=0;entryDy=0;exitX=0.5;exitY=1;exitDx=0;exitDy=0;" parent="1" source="XKbH0hADGiryWMfeD4Mq-11" target="XKbH0hADGiryWMfeD4Mq-1" edge="1">
          <mxGeometry relative="1" as="geometry" />
        </mxCell>
        <mxCell id="XKbH0hADGiryWMfeD4Mq-57" style="edgeStyle=orthogonalEdgeStyle;rounded=0;orthogonalLoop=1;jettySize=auto;html=1;exitX=0.25;exitY=1;exitDx=0;exitDy=0;entryX=0.5;entryY=1;entryDx=0;entryDy=0;entryPerimeter=0;strokeWidth=1;dashed=1;" parent="1" source="XKbH0hADGiryWMfeD4Mq-11" target="XKbH0hADGiryWMfeD4Mq-9" edge="1">
          <mxGeometry relative="1" as="geometry">
            <mxPoint x="-720" y="640" as="targetPoint" />
            <Array as="points">
              <mxPoint x="-240" y="470" />
              <mxPoint x="-690" y="470" />
            </Array>
          </mxGeometry>
        </mxCell>
        <mxCell id="XKbH0hADGiryWMfeD4Mq-11" value="triage" style="shape=process;whiteSpace=wrap;html=1;backgroundOutline=1;" parent="1" vertex="1">
          <mxGeometry x="-270" y="350" width="120" height="60" as="geometry" />
        </mxCell>
        <mxCell id="XKbH0hADGiryWMfeD4Mq-28" style="edgeStyle=orthogonalEdgeStyle;rounded=0;orthogonalLoop=1;jettySize=auto;html=1;entryX=0;entryY=0.5;entryDx=0;entryDy=0;" parent="1" source="XKbH0hADGiryWMfeD4Mq-12" target="XKbH0hADGiryWMfeD4Mq-55" edge="1">
          <mxGeometry relative="1" as="geometry">
            <mxPoint x="10" y="380" as="targetPoint" />
          </mxGeometry>
        </mxCell>
        <mxCell id="XKbH0hADGiryWMfeD4Mq-12" value="triaged&lt;br&gt;threat candidates" style="shape=note;whiteSpace=wrap;html=1;backgroundOutline=1;darkOpacity=0.05;" parent="1" vertex="1">
          <mxGeometry x="-110" y="330" width="80" height="100" as="geometry" />
        </mxCell>
        <mxCell id="XKbH0hADGiryWMfeD4Mq-58" style="edgeStyle=orthogonalEdgeStyle;rounded=0;orthogonalLoop=1;jettySize=auto;html=1;entryX=0.5;entryY=1;entryDx=0;entryDy=0;entryPerimeter=0;strokeWidth=1;dashed=1;exitX=0;exitY=0.5;exitDx=0;exitDy=0;" parent="1" source="FbfdTK8tjVJBXB0avibO-5" target="XKbH0hADGiryWMfeD4Mq-9" edge="1">
          <mxGeometry relative="1" as="geometry">
            <Array as="points">
              <mxPoint x="-30" y="470" />
              <mxPoint x="-690" y="470" />
            </Array>
            <mxPoint x="-30" y="610" as="sourcePoint" />
          </mxGeometry>
        </mxCell>
        <mxCell id="XKbH0hADGiryWMfeD4Mq-55" value="to threat ranking process" style="text;html=1;strokeColor=none;fillColor=none;align=center;verticalAlign=middle;whiteSpace=wrap;rounded=0;" parent="1" vertex="1">
          <mxGeometry x="10" y="340" width="80" height="80" as="geometry" />
        </mxCell>
        <mxCell id="FbfdTK8tjVJBXB0avibO-5" value="from&lt;br&gt;ranking&lt;br&gt;risking&lt;br&gt;slicing processes" style="text;html=1;strokeColor=none;fillColor=none;align=center;verticalAlign=middle;whiteSpace=wrap;rounded=0;" parent="1" vertex="1">
          <mxGeometry x="10" y="430" width="80" height="80" as="geometry" />
        </mxCell>
        <mxCell id="FbfdTK8tjVJBXB0avibO-9" value="triaging" style="text;html=1;strokeColor=none;fillColor=none;align=center;verticalAlign=middle;whiteSpace=wrap;rounded=0;" parent="1" vertex="1">
          <mxGeometry x="-330" y="590" width="320" height="20" as="geometry" />
        </mxCell>
        <mxCell id="LRI6FaqGRrZTjfz2rVRe-2" value="&lt;span style=&quot;&quot;&gt;ASA&lt;br&gt;SME&lt;/span&gt;" style="shape=umlActor;verticalLabelPosition=bottom;labelBackgroundColor=#D4E1F5;verticalAlign=top;html=1;outlineConnect=0;fillColor=#D4E1F5;" parent="1" vertex="1">
          <mxGeometry x="-280" y="110" width="30" height="60" as="geometry" />
        </mxCell>
        <mxCell id="LRI6FaqGRrZTjfz2rVRe-3" value="&lt;span style=&quot;&quot;&gt;development&lt;br&gt;&amp;nbsp; &amp;nbsp; &amp;nbsp; SME&amp;nbsp; &amp;nbsp; &amp;nbsp; &amp;nbsp;&lt;/span&gt;" style="shape=umlActor;verticalLabelPosition=bottom;labelBackgroundColor=#D4E1F5;verticalAlign=top;html=1;outlineConnect=0;fillColor=#D4E1F5;" parent="1" vertex="1">
          <mxGeometry x="-170" y="110" width="30" height="60" as="geometry" />
        </mxCell>
        <mxCell id="6UVFRJuRCrQyfI-HaULN-2" value="triage" parent="0" />
        <mxCell id="LRI6FaqGRrZTjfz2rVRe-12" value="" style="rounded=0;whiteSpace=wrap;html=1;strokeColor=none;fillColor=#D4E1F5;" parent="6UVFRJuRCrQyfI-HaULN-2" vertex="1">
          <mxGeometry x="-330" y="650" width="320" height="530" as="geometry" />
        </mxCell>
        <mxCell id="LRI6FaqGRrZTjfz2rVRe-13" value="attack surface analysis report" style="shape=document;whiteSpace=wrap;html=1;boundedLbl=1;" parent="6UVFRJuRCrQyfI-HaULN-2" vertex="1">
          <mxGeometry x="-270" y="1070" width="120" height="80" as="geometry" />
        </mxCell>
        <mxCell id="LRI6FaqGRrZTjfz2rVRe-14" style="edgeStyle=orthogonalEdgeStyle;rounded=0;orthogonalLoop=1;jettySize=auto;html=1;entryX=0.25;entryY=0;entryDx=0;entryDy=0;fillColor=#6a00ff;strokeColor=#3700CC;" parent="6UVFRJuRCrQyfI-HaULN-2" source="LRI6FaqGRrZTjfz2rVRe-25" target="LRI6FaqGRrZTjfz2rVRe-19" edge="1">
          <mxGeometry relative="1" as="geometry">
            <mxPoint x="-265" y="490" as="sourcePoint" />
            <Array as="points">
              <mxPoint x="-265" y="830" />
              <mxPoint x="-240" y="830" />
            </Array>
          </mxGeometry>
        </mxCell>
        <mxCell id="LRI6FaqGRrZTjfz2rVRe-15" style="edgeStyle=orthogonalEdgeStyle;rounded=0;orthogonalLoop=1;jettySize=auto;html=1;entryX=0.75;entryY=0;entryDx=0;entryDy=0;fillColor=#6a00ff;strokeColor=#3700CC;" parent="6UVFRJuRCrQyfI-HaULN-2" source="LRI6FaqGRrZTjfz2rVRe-26" target="LRI6FaqGRrZTjfz2rVRe-19" edge="1">
          <mxGeometry relative="1" as="geometry">
            <mxPoint x="-140" y="680" as="sourcePoint" />
          </mxGeometry>
        </mxCell>
        <mxCell id="LRI6FaqGRrZTjfz2rVRe-17" style="edgeStyle=orthogonalEdgeStyle;rounded=0;orthogonalLoop=1;jettySize=auto;html=1;entryX=0;entryY=0.5;entryDx=0;entryDy=0;entryPerimeter=0;" parent="6UVFRJuRCrQyfI-HaULN-2" source="LRI6FaqGRrZTjfz2rVRe-19" target="LRI6FaqGRrZTjfz2rVRe-21" edge="1">
          <mxGeometry relative="1" as="geometry" />
        </mxCell>
        <mxCell id="LRI6FaqGRrZTjfz2rVRe-18" style="edgeStyle=orthogonalEdgeStyle;rounded=0;orthogonalLoop=1;jettySize=auto;html=1;entryX=0.5;entryY=0;entryDx=0;entryDy=0;exitX=0.5;exitY=1;exitDx=0;exitDy=0;" parent="6UVFRJuRCrQyfI-HaULN-2" source="LRI6FaqGRrZTjfz2rVRe-19" target="LRI6FaqGRrZTjfz2rVRe-13" edge="1">
          <mxGeometry relative="1" as="geometry" />
        </mxCell>
        <mxCell id="LRI6FaqGRrZTjfz2rVRe-19" value="triage" style="shape=process;whiteSpace=wrap;html=1;backgroundOutline=1;" parent="6UVFRJuRCrQyfI-HaULN-2" vertex="1">
          <mxGeometry x="-270" y="920" width="120" height="60" as="geometry" />
        </mxCell>
        <mxCell id="LRI6FaqGRrZTjfz2rVRe-20" style="edgeStyle=orthogonalEdgeStyle;rounded=0;orthogonalLoop=1;jettySize=auto;html=1;entryX=0;entryY=0.5;entryDx=0;entryDy=0;" parent="6UVFRJuRCrQyfI-HaULN-2" source="LRI6FaqGRrZTjfz2rVRe-21" target="LRI6FaqGRrZTjfz2rVRe-22" edge="1">
          <mxGeometry relative="1" as="geometry">
            <mxPoint x="10" y="950" as="targetPoint" />
          </mxGeometry>
        </mxCell>
        <mxCell id="LRI6FaqGRrZTjfz2rVRe-21" value="triaged&lt;br&gt;threat candidates" style="shape=note;whiteSpace=wrap;html=1;backgroundOutline=1;darkOpacity=0.05;" parent="6UVFRJuRCrQyfI-HaULN-2" vertex="1">
          <mxGeometry x="-110" y="900" width="80" height="100" as="geometry" />
        </mxCell>
        <mxCell id="LRI6FaqGRrZTjfz2rVRe-22" value="to threat ranking process" style="text;html=1;strokeColor=none;fillColor=none;align=center;verticalAlign=middle;whiteSpace=wrap;rounded=0;" parent="6UVFRJuRCrQyfI-HaULN-2" vertex="1">
          <mxGeometry x="10" y="910" width="80" height="80" as="geometry" />
        </mxCell>
        <mxCell id="LRI6FaqGRrZTjfz2rVRe-24" value="triaging" style="text;html=1;strokeColor=none;fillColor=none;align=center;verticalAlign=middle;whiteSpace=wrap;rounded=0;" parent="6UVFRJuRCrQyfI-HaULN-2" vertex="1">
          <mxGeometry x="-330" y="1160" width="320" height="20" as="geometry" />
        </mxCell>
        <mxCell id="LRI6FaqGRrZTjfz2rVRe-25" value="&lt;span style=&quot;&quot;&gt;ASA&lt;br&gt;SME&lt;/span&gt;" style="shape=umlActor;verticalLabelPosition=bottom;labelBackgroundColor=#D4E1F5;verticalAlign=top;html=1;outlineConnect=0;fillColor=#D4E1F5;" parent="6UVFRJuRCrQyfI-HaULN-2" vertex="1">
          <mxGeometry x="-280" y="680" width="30" height="60" as="geometry" />
        </mxCell>
        <mxCell id="LRI6FaqGRrZTjfz2rVRe-26" value="&lt;span style=&quot;&quot;&gt;development&lt;br&gt;&amp;nbsp; &amp;nbsp; &amp;nbsp; SME&amp;nbsp; &amp;nbsp; &amp;nbsp; &amp;nbsp;&lt;/span&gt;" style="shape=umlActor;verticalLabelPosition=bottom;labelBackgroundColor=#D4E1F5;verticalAlign=top;html=1;outlineConnect=0;fillColor=#D4E1F5;" parent="6UVFRJuRCrQyfI-HaULN-2" vertex="1">
          <mxGeometry x="-170" y="680" width="30" height="60" as="geometry" />
        </mxCell>
        <mxCell id="LRI6FaqGRrZTjfz2rVRe-27" style="edgeStyle=orthogonalEdgeStyle;rounded=0;orthogonalLoop=1;jettySize=auto;html=1;entryX=1;entryY=0.5;entryDx=0;entryDy=0;strokeWidth=1;dashed=1;exitX=0.25;exitY=1;exitDx=0;exitDy=0;" parent="6UVFRJuRCrQyfI-HaULN-2" source="LRI6FaqGRrZTjfz2rVRe-19" target="LRI6FaqGRrZTjfz2rVRe-28" edge="1">
          <mxGeometry relative="1" as="geometry">
            <Array as="points">
              <mxPoint x="-240" y="1015" />
            </Array>
            <mxPoint x="10" y="1040" as="sourcePoint" />
            <mxPoint x="-690" y="1000" as="targetPoint" />
          </mxGeometry>
        </mxCell>
        <mxCell id="LRI6FaqGRrZTjfz2rVRe-28" value="element&lt;br&gt;model&lt;br&gt;update" style="text;html=1;strokeColor=none;fillColor=none;align=center;verticalAlign=middle;whiteSpace=wrap;rounded=0;" parent="6UVFRJuRCrQyfI-HaULN-2" vertex="1">
          <mxGeometry x="-330" y="990" width="50" height="50" as="geometry" />
        </mxCell>
        <mxCell id="LRI6FaqGRrZTjfz2rVRe-29" value="threat candidates" style="shape=note;whiteSpace=wrap;html=1;backgroundOutline=1;darkOpacity=0.05;" parent="6UVFRJuRCrQyfI-HaULN-2" vertex="1">
          <mxGeometry x="-430" y="900" width="80" height="100" as="geometry" />
        </mxCell>
        <mxCell id="LRI6FaqGRrZTjfz2rVRe-30" style="edgeStyle=orthogonalEdgeStyle;rounded=0;orthogonalLoop=1;jettySize=auto;html=1;fillColor=#fa6800;strokeColor=#C73500;" parent="6UVFRJuRCrQyfI-HaULN-2" source="LRI6FaqGRrZTjfz2rVRe-29" target="LRI6FaqGRrZTjfz2rVRe-19" edge="1">
          <mxGeometry relative="1" as="geometry">
            <mxPoint x="-380" y="830" as="targetPoint" />
          </mxGeometry>
        </mxCell>
      </root>
    </mxGraphModel>
  </diagram>
</mxfile>
